<?xml version="1.0" encoding="utf-8"?>
<!-- Generator: Adobe Illustrator 22.1.0, SVG Export Plug-In . SVG Version: 6.00 Build 0)  -->
<svg version="1.1" id="Layer_1" xmlns="http://www.w3.org/2000/svg" xmlns:xlink="http://www.w3.org/1999/xlink" x="0px" y="0px"
	 viewBox="0 0 430.7 427.1" style="enable-background:new 0 0 430.7 427.1;" xml:space="preserve">
<style type="text/css">
	.st0{fill:#FFFFFF;}
</style>
<path class="st0" d="M430.7,322.1c0,20.7-14.6,37.5-32.7,37.5H32.7c-18,0-32.7-16.8-32.7-37.5V37.5C0,16.8,14.6,0,32.7,0H398
	c18,0,32.7,16.8,32.7,37.5V322.1z"/>
<path d="M345.9,218.3l-3.2,2.2c-9.2,6.4-16.5,9-21.9,8c-5.3-1.1-11.3-6.4-18-16.1L215.5,89.8l0,0c-20.5-26.3-45.9-39.5-76.4-39.5
	c-27.6,0-50.5,9.6-68.7,28.9s-27.3,43.7-27.3,73.1v157h75.2v-66.1h24.8v-67.8h-24.8v-31.2c0-16,5.8-23.9,17.3-23.9
	c8.6,0,13.4,4,20.6,11.1l91.4,133.5c16.1,23.4,35,37.4,56.6,41.9c21.7,4.5,43.8-1,66.5-16.6l16.6-11.4L345.9,218.3z"/>
<polygon class="st0" points="4.3,373.2 60.7,373.2 60.7,386.2 20.9,386.2 20.9,396.2 58.9,396.2 58.9,408.8 20.9,408.8 20.9,427.1 
	4.3,427.1 "/>
<polygon class="st0" points="70.8,373.2 87.2,373.2 87.2,413.3 124.5,413.3 124.5,427.1 70.8,427.1 "/>
<polygon class="st0" points="146.8,408.4 116.9,373.2 136.9,373.2 155.1,395.2 173.3,373.2 193.4,373.2 163.4,408.4 163.4,427.1 
	146.8,427.1 "/>
<polygon class="st0" points="199.4,373.2 216,373.2 216,413.3 253.2,413.3 253.2,427.1 199.4,427.1 "/>
<path class="st0" d="M274.8,402.7c0,7.7,1.5,10.7,8.2,10.7h18.5c6.8,0,8.3-3,8.3-10.7v-5.8c0-6.6-1.5-10.7-9.1-10.7h-16.9
	c-7.6,0-9.1,4.1-9.1,10.7v5.8H274.8z M260,391.9c0-15.7,7.7-19.3,20.7-19.3h23.2c13,0,20.7,3.6,20.7,19.3v15.9
	c0,15.6-7.7,19.3-20.7,19.3h-23.2c-12.9,0-20.7-3.7-20.7-19.3V391.9z"/>
<polygon class="st0" points="329.9,373.2 346.1,373.2 357.6,412.9 357.7,412.9 371.5,373.2 386.9,373.2 400.5,412.9 400.7,412.9 
	412.3,373.2 428.4,373.2 410.8,427.1 391.8,427.1 379.2,391.5 379.1,391.5 366.5,427.1 347.5,427.1 "/>
</svg>
